HIERARCHY
ROOT hip
{
	OFFSET 0.000000 0.000000 0.000000
	CHANNELS 6 Xposition Yposition Zposition Xrotation Zrotation Yrotation 
	JOINT abdomen
	{
		OFFSET 0.000000 3.422050 0.000000
		CHANNELS 3 Xrotation Zrotation Yrotation 
		JOINT chest
		{
			OFFSET 0.000000 8.486693 -0.684411
			CHANNELS 3 Xrotation Zrotation Yrotation 
			JOINT neck
			{
				OFFSET 0.000000 10.266162 -0.273764
				CHANNELS 3 Xrotation Zrotation Yrotation 
				JOINT head
				{
					OFFSET 0.000000 3.148285 0.000000
					CHANNELS 3 Xrotation Zrotation Yrotation 
					End Site
					{
						OFFSET 0.000000 3.148289 0.000000
					}
				}
			}
			JOINT lCollar
			{
				OFFSET 3.422053 6.707223 -0.821293
				CHANNELS 3 Yrotation Zrotation Xrotation 
				JOINT lShldr
				{
					OFFSET 3.285171 0.000000 0.000000
					CHANNELS 3 Zrotation Yrotation Xrotation 
					JOINT lForeArm
					{
						OFFSET 10.129278 0.000000 0.000000
						CHANNELS 3 Yrotation Zrotation Xrotation 
						JOINT lHand
						{
							OFFSET 8.486692 0.000000 0.000000
							CHANNELS 3 Zrotation Yrotation Xrotation 
							End Site
							{
								OFFSET 4.106464 0.000000 0.000000
							}
						}
					}
				}
			}
			JOINT rCollar
			{
				OFFSET -3.558935 6.707223 -0.821293
				CHANNELS 3 Yrotation Zrotation Xrotation 
				JOINT rShldr
				{
					OFFSET -3.148289 0.000000 0.000000
					CHANNELS 3 Zrotation Yrotation Xrotation 
					JOINT rForeArm
					{
						OFFSET -10.266159 0.000000 0.000000
						CHANNELS 3 Yrotation Zrotation Xrotation 
						JOINT rHand
						{
							OFFSET -8.349810 0.000000 0.000000
							CHANNELS 3 Zrotation Yrotation Xrotation 
							End Site
							{
								OFFSET -4.106464 0.000000 0.000000
							}
						}
					}
				}
			}
		}
	}
	JOINT lThigh
	{
		OFFSET 5.338403 -1.642589 1.368821
		CHANNELS 3 Xrotation Zrotation Yrotation 
		JOINT lShin
		{
			OFFSET -2.053232 -20.121670 0.000000
			CHANNELS 3 Xrotation Zrotation Yrotation 
			JOINT lFoot
			{
				OFFSET 0.000000 -19.300380 -1.231939
				CHANNELS 3 Xrotation Yrotation Zrotation 
				End Site
				{
					OFFSET 0.000000 -2.463878 4.653993
				}
			}
		}
	}
	JOINT rThigh
	{
		OFFSET -5.338403 -1.642589 1.368821
		CHANNELS 3 Xrotation Zrotation Yrotation 
		JOINT rShin
		{
			OFFSET 2.053232 -20.121670 0.000000
			CHANNELS 3 Xrotation Zrotation Yrotation 
			JOINT rFoot
			{
				OFFSET 0.000000 -19.300380 -1.231939
				CHANNELS 3 Xrotation Yrotation Zrotation 
				End Site
				{
					OFFSET 0.000000 -2.463878 4.653993
				}
			}
		}
	}
}
MOTION
Frames: 8
Frame Time: 0.033264
0.000000 43.528500 0.000000 0.000000 0.000000 0.000000 0.000000 0.000000 0.000000 0.000000 0.000000 0.000000 0.000000 0.000000 0.000000 0.000000 0.000000 0.000000 0.000000 0.000000 0.000000 0.000000 0.000000 0.000000 0.000000 0.000000 0.000000 0.000000 0.000000 0.000000 0.000000 0.000000 0.000000 0.000000 0.000000 0.000000 0.000000 0.000000 0.000000 0.000000 0.000000 0.000000 0.000000 0.000000 0.000000 0.000000 0.000000 0.000000 0.000000 0.000000 0.000000 0.000000 0.000000 0.000000 0.000000 0.000000 0.000000 0.000000 0.000000 0.000000 
-3.144903 20.781178 -7.013735 10.999558 0.000000 0.000000 13.274580 -1.110921 -0.937324 -26.824211 -1.430285 16.166260 0.000000 13.997003 0.000000 0.000000 0.000000 0.000000 -69.347588 -21.657480 39.327103 -34.538548 -11.359259 -15.346305 -69.476532 13.909772 -58.719296 -23.667770 -0.128654 50.376862 12.308343 16.492598 1.801038 67.921310 18.734179 2.602620 36.114883 -15.203269 4.005946 52.991619 -6.610463 24.987597 -25.623634 17.554419 -38.543507 99.771255 -3.439023 9.727528 58.571449 -35.615047 -1.925876 -96.022697 -48.787846 -18.533550 117.182961 -10.411527 -9.600221 -30.933777 6.023718 16.952726 
-3.144903 20.516516 -6.923288 8.449587 0.000000 0.000000 13.274580 -1.110921 -0.937324 -23.090094 -1.430447 16.166151 -0.413969 13.997032 -0.000023 -0.190500 -0.088502 0.083225 -70.025978 -19.626274 38.057762 -34.269211 -11.322864 -15.444605 -69.288040 13.985522 -58.765652 -23.756306 0.189246 49.161449 12.639933 14.914314 -0.456085 68.140564 18.831347 2.678709 36.114883 -15.203269 4.005946 53.696209 -7.149230 23.808283 -23.172974 19.056080 -37.935310 99.771255 -3.439023 9.727528 58.626801 -35.397480 -0.263614 -94.246857 -49.717331 -18.043653 117.924355 -10.499594 -9.713380 -31.350231 6.848746 16.730888 
-3.144903 20.251854 -6.832842 5.878461 0.000000 0.000000 13.274581 -1.110921 -0.937324 -19.285446 -1.430604 16.166025 -0.828295 13.997066 -0.000045 -0.381251 -0.176782 0.166797 -70.653168 -17.567190 36.820271 -33.999962 -11.286017 -15.542731 -69.099426 14.061134 -58.812279 -23.851772 0.505811 47.943150 12.906695 13.313786 -2.703405 68.360123 18.928244 2.755242 36.114891 -15.203269 4.005946 54.414452 -7.674699 22.618032 -20.673483 20.536644 -37.250847 99.771255 -3.439023 9.727529 58.674412 -35.177963 1.399478 -92.435730 -50.663002 -17.586689 118.666618 -10.586267 -9.827795 -31.764704 7.676288 16.514463 
-3.144903 19.987192 -6.742395 3.288535 0.000000 0.000000 13.274580 -1.110921 -0.937324 -15.416864 -1.430755 16.165890 -1.242967 13.997097 -0.000068 -0.572251 -0.264838 0.250715 -71.230820 -15.482977 35.612026 -33.730785 -11.248715 -15.640673 -68.910660 14.136593 -58.859177 -23.954128 0.820811 46.722149 13.108482 11.695089 -4.941933 68.579926 19.024862 2.832211 36.114887 -15.203269 4.005945 55.146046 -8.186288 21.417150 -18.124012 21.990854 -36.488686 99.771255 -3.439023 9.727528 58.714211 -34.956757 3.062752 -90.587654 -51.623474 -17.166111 119.409683 -10.671528 -9.943444 -32.177269 8.506180 16.303442 
-3.144903 19.722530 -6.651949 0.682275 0.000000 0.000000 13.274580 -1.110921 -0.937324 -11.491755 -1.430898 16.165743 -1.657975 13.997126 -0.000092 -0.763500 -0.352669 0.334980 -71.760475 -13.376407 34.430473 -33.461685 -11.210957 -15.738422 -68.721771 14.211907 -58.906353 -24.063349 1.134015 45.498672 13.245295 10.062421 -7.172751 68.799995 19.121212 2.909623 36.114880 -15.203267 4.005945 55.890659 -8.683424 20.205961 -15.523676 23.413378 -35.647717 99.771255 -3.439023 9.727528 58.746128 -34.734127 4.725560 -88.700638 -52.597206 -16.785631 120.153519 -10.755345 -10.060299 -32.588024 9.338262 16.097832 
-3.144903 19.457869 -6.561502 -1.937757 0.000000 0.000000 13.274580 -1.110921 -0.937324 -7.518250 -1.431033 16.165583 -2.073308 13.997155 -0.000115 -0.954996 -0.440271 0.419590 -72.243568 -11.250284 33.273190 -33.192673 -11.172749 -15.835988 -68.532738 14.287070 -58.953800 -24.179396 1.445196 44.272957 13.317277 8.420066 -9.396993 69.020378 19.217283 2.987476 36.114883 -15.203267 4.005945 56.647915 -9.165555 18.984823 -12.871966 24.798870 -34.727276 99.771255 -3.439023 9.727528 58.770172 -34.510380 6.387259 -86.772552 -53.582603 -16.449234 120.898041 -10.837701 -10.178334 -32.997063 10.172365 15.897631 
-3.144903 19.193207 -6.471056 -4.568909 0.000000 0.000000 13.274580 -1.110921 -0.937324 -3.505167 -1.431157 16.165415 -2.488956 13.997187 -0.000139 -1.146740 -0.527642 0.504544 -72.681343 -9.107437 32.137745 -32.923748 -11.134087 -15.933356 -68.343590 14.362088 -59.001530 -24.302221 1.754123 43.045227 13.324686 6.772360 -11.615799 69.241013 19.313072 3.065768 36.114883 -15.203269 4.005946 57.417412 -9.632141 17.754143 -10.168800 26.142008 -33.727173 99.771255 -3.439023 9.727528 58.786297 -34.285763 8.047211 -84.800827 -54.577862 -16.161179 121.643158 -10.918565 -10.297518 -33.404472 11.008328 15.702847 
